<?xml version="1.0" encoding="UTF-8" standalone="no"?>
<!DOCTYPE svg PUBLIC "-//W3C//DTD SVG 1.1//EN" "http://www.w3.org/Graphics/SVG/1.1/DTD/svg11.dtd">
<svg width="100%" height="100%" viewBox="0 0 640 640" version="1.1"
  xmlns="http://www.w3.org/2000/svg"
  xmlns:xlink="http://www.w3.org/1999/xlink" xml:space="preserve"
  xmlns:serif="http://www.serif.com/" style="fill-rule:evenodd;clip-rule:evenodd;stroke-linejoin:round;stroke-miterlimit:2;">
  <path d="M622.208,299.552C593.984,141.92 530.88,95.424 497.312,95.424C444.928,95.424 431.488,134.368 320,135.68C208.512,134.368 195.072,95.424 142.688,95.424C109.12,95.424 45.984,141.92 17.76,299.552C1.664,389.536 -15.808,523.872 25.824,540C77.632,560.064 95.2,509.888 152.096,467.488C209.856,424.512 237.568,414.4 320,414.4C402.432,414.4 430.144,424.512 487.904,467.488C544.8,509.856 562.368,560.064 614.176,540C655.808,523.872 638.336,389.568 622.208,299.552ZM192,320C156.64,320 128,291.328 128,256C128,220.64 156.64,192 192,192C227.36,192 256,220.64 256,256C256,291.328 227.328,320 192,320ZM416,320C398.304,320 384,305.696 384,288C384,270.304 398.304,256 416,256C433.696,256 448,270.304 448,288C448,305.696 433.696,320 416,320ZM480,256C462.304,256 448,241.696 448,224C448,206.304 462.304,192 480,192C497.696,192 512,206.304 512,224C512,241.696 497.696,256 480,256Z" style="fill:rgb(112,192,65);fill-rule:nonzero;"/>
  <path d="M622.208,299.552C638.336,389.568 655.808,523.872 614.176,540C562.368,560.064 544.8,509.856 487.904,467.488C430.144,424.512 402.432,414.4 320,414.4C237.568,414.4 209.856,424.512 152.096,467.488C95.2,509.888 77.632,560.064 25.824,540C-15.808,523.872 1.664,389.536 17.76,299.552C45.984,141.92 109.12,95.424 142.688,95.424C195.072,95.424 208.512,134.368 320,135.68C431.488,134.368 444.928,95.424 497.312,95.424C530.88,95.424 593.984,141.92 622.208,299.552ZM617.286,300.434C600.611,207.303 571.792,153.477 544.089,125.39C526.6,107.659 509.832,100.424 497.312,100.424C477.143,100.424 462.996,106.518 446.383,113.796C420.089,125.316 388,139.88 320.059,140.68C320.02,140.68 319.98,140.68 319.941,140.68C252,139.88 219.911,125.316 193.617,113.796C177.004,106.518 162.857,100.424 142.688,100.424C130.168,100.424 113.395,107.66 95.9,125.391C68.188,153.477 39.357,207.303 22.682,300.433C11.509,362.894 -0.444,446.896 7.617,497.166C9.26,507.412 11.724,516.199 15.298,522.981C18.455,528.97 22.428,533.322 27.63,535.338C51.414,544.549 67.299,537.445 83.807,523.364C101.854,507.971 120.555,484.758 149.108,463.479L149.111,463.477C207.903,419.733 236.096,409.4 320,409.4C403.904,409.4 432.097,419.733 490.889,463.477L490.89,463.478C519.445,484.741 538.146,507.955 556.193,523.352C572.702,537.437 588.586,544.548 612.37,535.338C617.572,533.322 621.545,528.971 624.702,522.982C628.276,516.202 630.739,507.417 632.382,497.172C640.441,446.909 628.481,362.916 617.286,300.434ZM416,325C395.539,325 379,308.461 379,288C379,267.539 395.539,251 416,251C436.461,251 453,267.539 453,288C453,308.461 436.461,325 416,325ZM416,320C433.696,320 448,305.696 448,288C448,270.304 433.696,256 416,256C398.304,256 384,270.304 384,288C384,305.696 398.304,320 416,320ZM192,325C153.878,325 123,294.088 123,256C123,217.878 153.878,187 192,187C230.123,187 261,217.878 261,256C261,294.088 230.088,325 192,325ZM192,320C227.328,320 256,291.328 256,256C256,220.64 227.36,192 192,192C156.64,192 128,220.64 128,256C128,291.328 156.64,320 192,320ZM480,261C459.539,261 443,244.461 443,224C443,203.539 459.539,187 480,187C500.461,187 517,203.539 517,224C517,244.461 500.461,261 480,261ZM480,256C497.696,256 512,241.696 512,224C512,206.304 497.696,192 480,192C462.304,192 448,206.304 448,224C448,241.696 462.304,256 480,256Z"/>
</svg>
